<?xml version="1.0" standalone="no"?>
<!DOCTYPE svg PUBLIC "-//W3C//DTD SVG 20010904//EN"
 "http://www.w3.org/TR/2001/REC-SVG-20010904/DTD/svg10.dtd">
<svg version="1.0" xmlns="http://www.w3.org/2000/svg"
 width="260.000000pt" height="260.000000pt" viewBox="0 0 260.000000 260.000000"
 preserveAspectRatio="xMidYMid meet">
<metadata>
Created by potrace 1.11, written by Peter Selinger 2001-2013
</metadata>
<g transform="translate(0.000000,260.000000) scale(0.100000,-0.100000)"
fill="#000000" stroke="none">
<path d="M913 2182 c-6 -4 -21 -79 -33 -167 -12 -88 -25 -163 -29 -168 -4 -4
-84 -8 -178 -10 -94 -1 -174 -4 -176 -7 -7 -7 -45 -273 -40 -282 2 -5 80 -8
173 -8 93 0 171 -4 174 -9 3 -5 -1 -60 -10 -122 -8 -63 -20 -150 -26 -194 -5
-44 -13 -84 -18 -88 -4 -5 -79 -8 -167 -8 -110 0 -166 -4 -177 -12 -16 -12
-46 -172 -46 -249 l0 -38 163 0 c89 0 167 -4 174 -8 8 -5 6 -49 -12 -172 -12
-91 -21 -168 -18 -172 2 -5 73 -8 158 -8 177 0 158 -13 175 120 6 47 16 119
23 160 l13 75 194 3 c200 3 217 0 205 -38 -4 -13 -18 -105 -42 -277 l-6 -43
157 0 c185 0 165 -19 191 180 26 200 3 180 209 180 172 0 174 0 179 23 12 46
38 259 33 264 -3 3 -79 5 -169 5 -91 0 -170 4 -176 7 -8 5 -7 30 3 92 8 46 18
111 22 144 3 33 12 87 19 120 l12 60 176 3 c174 2 177 3 182 25 10 46 29 194
29 232 l1 40 -168 1 c-92 1 -170 4 -173 7 -3 3 2 63 11 134 9 70 19 147 22
171 l6 43 -158 -3 -158 -3 -13 -55 c-6 -30 -17 -104 -24 -165 -7 -63 -17 -114
-24 -120 -8 -6 -88 -9 -205 -7 l-193 3 7 62 c4 34 11 78 15 97 5 19 12 70 16
113 l7 77 -149 0 c-82 0 -154 -4 -161 -8z m250 -29 c3 -5 1 -33 -4 -63 -21
-124 -38 -273 -33 -281 9 -15 490 -11 502 4 5 6 15 55 21 107 7 52 17 127 24
165 l12 70 104 3 103 3 -7 -78 c-4 -43 -13 -111 -21 -151 -8 -41 -14 -87 -14
-103 l0 -29 176 0 177 0 -7 -77 c-4 -43 -11 -95 -17 -115 l-10 -38 -157 0
c-86 0 -167 -3 -178 -6 -16 -4 -23 -16 -28 -46 -13 -81 -56 -404 -56 -420 0
-17 15 -18 176 -18 l177 0 -7 -67 c-3 -38 -11 -89 -18 -115 l-11 -46 -173 -4
c-95 -1 -175 -6 -179 -10 -6 -6 -25 -131 -42 -273 -3 -27 -10 -56 -15 -62 -7
-9 -42 -13 -110 -13 l-99 0 6 53 c3 28 13 97 21 153 9 55 14 111 12 125 l-3
24 -220 3 c-277 4 -281 3 -288 -46 -15 -119 -39 -279 -43 -294 -5 -16 -19 -18
-110 -18 -118 0 -112 -6 -94 91 16 87 36 259 31 264 -2 3 -82 5 -178 5 -132 0
-173 3 -173 13 0 14 20 161 26 195 4 22 6 22 179 22 128 0 176 3 182 13 10 15
73 459 67 469 -3 5 -81 8 -174 8 -107 0 -171 4 -175 10 -4 6 -2 32 4 58 5 26
13 73 16 104 l6 57 174 3 c95 2 177 6 181 11 8 8 14 43 38 219 8 59 17 111 21
117 7 12 201 15 208 4z"/>
<path d="M1093 1558 c-9 -11 -53 -290 -71 -440 l-4 -38 243 0 c134 0 249 4
256 8 7 4 17 41 23 82 6 41 18 117 26 168 7 51 17 124 20 163 l7 69 -245 0
c-185 0 -248 -3 -255 -12z m441 -26 c7 -11 -47 -398 -57 -409 -7 -6 -388 -6
-394 1 -7 7 33 316 48 379 l10 37 194 0 c107 0 196 -3 199 -8z"/>
</g>
</svg>
